<?xml version="1.0" encoding="UTF-8"?>
<svg id="Layer_1" xmlns="http://www.w3.org/2000/svg" version="1.1" viewBox="0 0 210.8 266.47">
  <!-- Generator: Adobe Illustrator 29.8.2, SVG Export Plug-In . SVG Version: 2.1.1 Build 3)  -->
  <defs>
    <style>
      .st0 {
        fill: #2e7d60;
      }

      .st1 {
        fill: #27543c;
      }

      .st2 {
        fill: #33b099;
      }

      .st3 {
        fill: #f06449;
      }
    </style>
  </defs>
  <path class="st3" d="M100.86,233.11c-3.7,0-7.84-.06-12.26-.17v27.96c0,1.02.77,1.91,1.92,2.23l7.85,2.18c5.61,1.55,11.67,1.55,17.29,0l7.84-2.18c1.15-.32,1.92-1.21,1.92-2.23v-29.36c-5.88.68-11.04,1.18-15,1.37-2.6.13-5.82.2-9.56.2Z"/>
  <path class="st1" d="M209.87,209.38l-45.46-45.59c-17.36-.08-38.78-.23-57.47-.55-15.61-.26-31.81-1.98-45.6-3.94L.95,218.85c-2.17,2.14-.38,5.46,2.85,5.46h.22s.89.07,2.51.18c.21.02.44.03.68.05.41.03.86.06,1.35.1.22.01.45.03.69.05,2.41.17,5.58.39,9.31.64.39.02.79.05,1.2.08.56.04,1.12.07,1.7.11,1.23.08,2.51.17,3.84.26.7.04,1.42.08,2.15.13.37.03.75.05,1.13.08.41.02.83.05,1.25.07.2.02.41.03.62.04,1.13.07,2.27.15,3.44.22.42.03.85.05,1.28.08.53.03,1.07.06,1.62.1.54.03,1.09.06,1.64.1h.04c1.06.06,2.14.12,3.22.19,1.09.07,2.18.13,3.29.19.07.01.13.01.2.01.58.04,1.15.07,1.73.1,1.25.07,2.51.14,3.78.21.77.05,1.54.09,2.32.13.83.05,1.67.09,2.51.13,3.74.2,7.51.39,11.24.56.98.05,1.95.09,2.92.13,1.52.07,3.04.13,4.54.19.62.03,1.24.06,1.86.08h.03c.85.04,1.7.07,2.55.1,1.3.04,2.58.09,3.84.13.97.04,1.93.07,2.87.09,1.09.03,2.17.06,3.23.09,4.42.12,8.55.18,12.26.18s6.73-.06,9.37-.19c.5-.03,1.01-.05,1.54-.09,2.34-.15,5.05-.39,8.04-.7.08,0,.15,0,.23-.02,1.37-.14,2.79-.3,4.27-.47.36-.04.74-.09,1.11-.13.8-.09,1.61-.19,2.43-.29.77-.1,1.55-.2,2.34-.3.92-.11,1.85-.23,2.8-.36.88-.11,1.78-.23,2.68-.36,1.24-.16,2.49-.33,3.76-.51.04,0,.09,0,.13-.02.65-.09,1.31-.18,1.97-.28,2.77-.39,5.59-.79,8.42-1.21.99-.15,1.98-.3,2.98-.45,1.61-.24,3.22-.49,4.83-.74.47-.07.95-.14,1.42-.22,2.92-.45,5.82-.9,8.67-1.36.66-.1,1.32-.21,1.98-.32.65-.1,1.3-.2,1.95-.31.63-.1,1.26-.2,1.89-.3.68-.11,1.36-.22,2.03-.33.61-.1,1.21-.2,1.8-.3,1.69-.27,3.33-.54,4.93-.81.47-.08.93-.15,1.38-.23.03-.01.06-.01.09-.01.84-.14,1.66-.28,2.46-.42.83-.13,1.65-.27,2.45-.41.47-.08.93-.16,1.39-.24,2.13-.35,4.12-.69,5.93-1,.44-.08.86-.15,1.28-.22,2.32-.4,4.3-.74,5.86-1.01.16-.03.31-.06.45-.08.1-.02.2-.04.29-.05.25-.05.49-.09.72-.13.23-.04.44-.08.64-.11.1-.02.19-.03.28-.05.19-.03.35-.06.5-.09.67-.12,1.03-.18,1.03-.18,3.16-.15,4.75-3.36,2.69-5.43Z"/>
  <path class="st0" d="M26.58,149.05s.17.04.49.11c.09.02.2.04.32.07.35.08.82.18,1.39.3.19.04.39.09.61.13,1.6.34,3.84.81,6.62,1.35.37.07.75.15,1.14.22.78.15,1.59.3,2.44.46.72.14,1.47.28,2.25.42,5.12.93,11.27,1.98,18.09,2.97,1.04.15,2.1.3,3.18.45.6.09,1.2.17,1.8.25.81.11,1.62.22,2.44.32,1.84.24,3.7.47,5.59.7,1.14.13,2.29.26,3.45.39,1.74.19,3.5.37,5.28.54.59.06,1.19.12,1.78.17,2.47.23,4.96.43,7.46.61.86.06,1.71.12,2.57.17.27.02.53.04.8.05.64.04,1.27.08,1.91.11.9.05,1.8.1,2.71.14.88.04,1.77.08,2.66.11,1.82.07,3.64.12,5.45.15.56,0,1.12.02,1.69.03h.02c.97.02,1.94.03,2.93.04.1,0,.2,0,.3,0,.24,0,.48.01.72.01.97.02,1.95.03,2.93.04h.19c.97.02,1.95.03,2.94.05.71.01,1.43.01,2.14.02,1.31.02,2.61.03,3.92.05.92,0,1.84.02,2.76.03,2.03.02,4.05.04,6.08.06l2.67.03h.93c.85.01,1.7.02,2.55.03h1.02c.82.01,1.64.02,2.45.03.96,0,1.92.01,2.87.01,1.03,0,2.06.02,3.08.03,1.15.01,2.29.01,3.42.02.57,0,1.13.01,1.69.01,1.12,0,2.23,0,3.33.02.93,0,1.85.01,2.76.01h.01c1.93.01,3.83.02,5.67.03,6.11.02,11.66.04,16.35.05,2.31.01,4.4.01,6.25.01,3.6.01,6.26.01,7.72.01h1.28c.1,0,.21,0,.31,0,.21,0,.41,0,.61-.04.12-.01.23-.03.34-.06.11-.02.21-.04.31-.08.11-.02.22-.06.32-.1.12-.04.23-.09.34-.14.23-.11.43-.23.63-.37.19-.14.36-.29.52-.46.08-.08.15-.17.21-.26.07-.08.13-.17.19-.26h0c.06-.1.11-.19.15-.28,0-.02.02-.03.02-.05.04-.09.08-.18.11-.27.04-.1.07-.19.09-.29.01-.03.02-.05.02-.07.02-.09.03-.17.04-.26.09-.76-.14-1.56-.77-2.27l-53.16-59.63c-11.53,2.64-27.54,5.95-40.54,7.27-10.15,1.04-31.93,1.58-48.36,1.85l-35.34,39.69c-1.85,2.08-.24,5.06,2.86,5.25Z"/>
  <path class="st2" d="M34.21,98.55c.04.07.08.14.13.2.05.07.1.14.15.2.06.07.11.13.17.19.07.08.15.16.25.24.13.12.29.23.45.33.08.05.16.1.25.15.14.08.29.15.45.21.14.06.29.11.44.15.01,0,.03.01.04.01.1.03.19.05.29.07.15.03.3.05.46.06.13.01.27.02.41.02.17,0,.34,0,.52-.03,0,0,3.65-.02,9.33-.09.33,0,.67-.01,1.02-.01.63,0,1.3-.02,1.98-.03.83-.01,1.68-.02,2.57-.03.77,0,1.55-.02,2.36-.03.58-.01,1.16-.02,1.76-.03,1.75-.03,3.57-.06,5.44-.09.49-.01.99-.02,1.49-.03,1.14-.02,2.29-.04,3.46-.07.95-.02,1.9-.04,2.86-.06.48,0,.97-.02,1.45-.03.55-.01,1.1-.03,1.65-.04.9-.02,1.8-.05,2.7-.07,1.65-.04,3.3-.09,4.94-.14.76-.02,1.51-.04,2.26-.07,1.29-.04,2.57-.08,3.83-.13.58-.02,1.16-.04,1.73-.06.9-.04,1.78-.07,2.64-.11h.04c.88-.04,1.75-.07,2.59-.11.9-.04,1.78-.08,2.63-.13.75-.04,1.49-.08,2.2-.12.38-.02.76-.05,1.13-.07.37-.02.73-.04,1.08-.07.72-.04,1.4-.09,2.06-.14.61-.05,1.2-.09,1.75-.14.65-.05,1.26-.11,1.84-.17.75-.08,1.5-.16,2.27-.25.39-.04.77-.09,1.16-.14.39-.04.77-.1,1.17-.15.78-.1,1.57-.2,2.37-.32,1.6-.22,3.22-.47,4.85-.73,1.54-.25,3.08-.51,4.63-.78.92-.16,1.85-.33,2.77-.5.82-.15,1.64-.3,2.46-.46.53-.1,1.07-.2,1.6-.31.6-.11,1.19-.23,1.79-.35.54-.1,1.08-.21,1.61-.32.67-.14,1.34-.27,2-.41,1.05-.22,2.08-.43,3.09-.65.53-.11,1.07-.23,1.59-.34.44-.09.87-.19,1.3-.28.45-.1.9-.2,1.34-.3.64-.14,1.28-.28,1.9-.42,1.55-.35,3.04-.69,4.44-1.02.43-.1.85-.2,1.26-.29.26-.06.51-.12.76-.18.91-.22,1.77-.43,2.58-.62.4-.09.79-.19,1.17-.28.07-.02.13-.03.2-.05.47-.11.91-.22,1.34-.33.43-.11.83-.2,1.21-.3.55-.14,1.04-.26,1.49-.37.75-.19,1.36-.35,1.81-.46.13-.03.24-.06.34-.09.15-.04.28-.07.37-.1.07-.01.12-.03.15-.03.04-.01.06-.02.06-.02,2.78-.29,4.31-2.85,2.93-4.89L110.14,1.66c-.09-.14-.2-.27-.31-.39-.22-.24-.47-.45-.75-.62-.11-.07-.22-.13-.33-.19,0-.01-.03-.01-.04-.02-.1-.04-.19-.08-.29-.12-.11-.05-.23-.09-.35-.12-.12-.04-.24-.07-.36-.1-.32-.07-.66-.1-.99-.1-.65,0-1.29.13-1.87.39-.11.05-.22.1-.32.16-.1.06-.2.12-.3.19-.2.13-.38.28-.55.45-.11.12-.21.24-.31.37L34.38,95.36c-.72.97-.74,2.06-.29,2.97.04.07.07.14.12.22Z"/>
</svg>