<?xml version="1.0" encoding="UTF-8"?>
<svg id="Layer_1" xmlns="http://www.w3.org/2000/svg" version="1.1" viewBox="0 0 586.55 200">
  <!-- Generator: Adobe Illustrator 29.8.2, SVG Export Plug-In . SVG Version: 2.1.1 Build 3)  -->
  <defs>
    <style>
      .st0 {
        fill: #ffcf00;
      }

      .st1 {
        fill: none;
        stroke: #191919;
        stroke-width: 24px;
      }

      .st2 {
        fill: #cf649a;
      }
    </style>
  </defs>
  <g>
    <circle class="st0" cx="100" cy="99.87" r="100"/>
    <path class="st1" d="M47.5,52.37l47.5,47.5-47.5,47.5M107.5,52.37l47.5,47.5-47.5,47.5"/>
  </g>
  <path class="st2" d="M550.22,114.4c-9.13.05-17.03,2.24-23.66,5.51-2.45-4.84-4.9-9.08-5.3-12.24-.46-3.67-1.02-5.92-.46-10.3.56-4.39,3.11-10.61,3.11-11.12-.05-.46-.56-2.7-5.81-2.75-5.25-.05-9.79,1.02-10.3,2.4s-1.53,4.54-2.19,7.8c-.92,4.79-10.5,21.77-15.96,30.7-1.78-3.47-3.31-6.53-3.62-8.97-.46-3.67-1.02-5.92-.46-10.3s3.11-10.61,3.11-11.12c-.05-.46-.56-2.7-5.81-2.75-5.25-.05-9.79,1.02-10.3,2.4s-1.07,4.64-2.19,7.8c-1.07,3.16-13.82,31.51-17.13,38.91-1.68,3.77-3.16,6.78-4.23,8.82s-.05.15-.15.36c-.92,1.73-1.43,2.7-1.43,2.7v.05c-.71,1.27-1.48,2.5-1.84,2.5-.25,0-.76-3.42.1-8.11,1.89-9.84,6.48-25.19,6.43-25.75,0-.25.87-2.96-2.96-4.33-3.72-1.38-5.05.92-5.35.92s-.56.82-.56.82c0,0,4.13-17.29-7.9-17.29-7.55,0-17.95,8.21-23.1,15.71-3.26,1.78-10.2,5.56-17.54,9.59-2.8,1.53-5.71,3.16-8.47,4.64l-.56-.61c-14.58-15.55-41.56-26.57-40.44-47.48.41-7.6,3.06-27.64,51.81-51.91,39.93-19.89,71.9-14.43,77.46-2.29,7.9,17.34-17.08,49.57-58.59,54.21-15.81,1.78-24.12-4.33-26.21-6.63-2.19-2.4-2.5-2.5-3.31-2.04-1.33.71-.51,2.86,0,4.13,1.22,3.21,6.32,8.92,14.99,11.78,7.6,2.5,26.16,3.88,48.6-4.79,25.14-9.74,44.77-36.77,39.01-59.36-5.86-23-44.01-30.55-80.06-17.75-21.47,7.65-44.72,19.58-61.45,35.24-19.89,18.56-23.05,34.78-21.72,41.51,4.64,24.02,37.74,39.67,50.99,51.25-.66.36-1.27.71-1.84,1.02-6.63,3.26-31.87,16.47-38.19,30.44-7.14,15.81,1.12,27.18,6.63,28.71,17.03,4.74,34.47-3.77,43.91-17.8,9.38-14.02,8.26-32.23,3.93-40.54l-.15-.31,5.2-3.06c3.37-1.99,6.68-3.82,9.59-5.41-1.63,4.44-2.8,9.69-3.42,17.34-.71,8.97,2.96,20.6,7.8,25.19,2.14,1.99,4.69,2.04,6.27,2.04,5.61,0,8.16-4.64,10.96-10.2,3.47-6.78,6.53-14.64,6.53-14.64,0,0-3.82,21.26,6.63,21.26,3.82,0,7.65-4.95,9.38-7.5v.05s.1-.15.31-.51c.41-.61.61-.97.61-.97v-.1c1.53-2.65,4.95-8.72,10.05-18.77,6.58-12.95,12.9-29.17,12.9-29.17,0,0,.61,3.98,2.5,10.5,1.12,3.88,3.57,8.11,5.46,12.24-1.53,2.14-2.45,3.37-2.45,3.37l.05.05c-1.22,1.63-2.6,3.37-4.03,5.1-5.2,6.22-11.42,13.31-12.24,15.35-.97,2.4-.76,4.18,1.12,5.61,1.38,1.02,3.82,1.22,6.43,1.02,4.69-.31,7.96-1.48,9.59-2.19,2.55-.92,5.46-2.29,8.26-4.33,5.1-3.77,8.21-9.13,7.9-16.27-.15-3.93-1.43-7.8-3.01-11.47.46-.66.92-1.33,1.38-2.04,8.06-11.78,14.28-24.73,14.28-24.73,0,0,.61,3.98,2.5,10.5.97,3.31,2.91,6.94,4.64,10.5-7.55,6.17-12.29,13.31-13.92,18-3.01,8.67-.66,12.6,3.77,13.51,1.99.41,4.84-.51,6.99-1.43,2.65-.87,5.86-2.35,8.82-4.54,5.1-3.77,9.99-9.03,9.74-16.11-.15-3.26-1.02-6.48-2.19-9.54,6.43-2.65,14.74-4.18,25.29-2.91,22.69,2.65,27.18,16.83,26.31,22.74-.87,5.92-5.61,9.18-7.19,10.2-1.58.97-2.09,1.33-1.94,2.04.2,1.07.92,1.02,2.29.82,1.89-.31,11.93-4.84,12.34-15.76.61-14.02-12.7-29.32-36.31-29.17h0ZM375.21,173.4c-7.5,8.21-18.05,11.32-22.54,8.67-4.84-2.8-2.96-14.89,6.27-23.61,5.61-5.3,12.9-10.2,17.7-13.21,1.07-.66,2.7-1.63,4.64-2.8.31-.2.51-.31.51-.31.36-.2.76-.46,1.17-.71,3.42,12.44.15,23.36-7.75,31.97h0ZM430.03,136.12c-2.6,6.37-8.11,22.74-11.42,21.83-2.86-.76-4.59-13.16-.56-25.4,2.04-6.17,6.37-13.51,8.92-16.37,4.13-4.59,8.62-6.12,9.74-4.23,1.33,2.45-5.05,20.19-6.68,24.17ZM475.26,157.75c-1.12.56-2.14.97-2.6.66-.36-.2.46-.97.46-.97,0,0,5.66-6.07,7.9-8.87,1.27-1.63,2.8-3.52,4.44-5.66v.61c0,7.34-7.04,12.24-10.2,14.23ZM510.14,149.79c-.82-.61-.71-2.5,2.04-8.41,1.07-2.35,3.52-6.27,7.75-9.99.51,1.53.82,3.01.76,4.39-.05,9.18-6.58,12.6-10.56,14.02Z"/>
  <path style="fill: currentColor;" d="M304.82,128.89l-9.01,11.5c-4.42-2.15-8.66-5.12-12.72-8.9-3.15,2.83-6.48,4.91-10.02,6.25-3.53,1.34-7.74,2.01-12.61,2.01-9.68,0-16.96-2.72-21.84-8.16-3.78-4.2-5.67-9.04-5.67-14.52,0-4.98,1.48-9.46,4.45-13.44,2.97-3.97,7.4-7.43,13.3-10.36-2.65-3.14-4.65-6.14-5.99-8.98-1.34-2.84-2.01-5.54-2.01-8.08,0-4.7,1.88-8.68,5.65-11.95,3.76-3.27,9.12-4.9,16.09-4.9s11.96,1.71,15.74,5.14c3.78,3.43,5.67,7.61,5.67,12.56,0,3.15-.94,6.13-2.81,8.96-1.87,2.83-5.65,6.02-11.34,9.59l10.81,14.26c1.27-2.26,2.37-5.21,3.29-8.85l13.46,3.07c-1.34,4.77-2.51,8.26-3.5,10.47-.99,2.21-2.05,4.05-3.18,5.54,1.66,1.56,3.81,3.26,6.44,5.11,2.63,1.86,4.57,3.08,5.8,3.68ZM258.44,102.82c-3.43,1.73-5.99,3.82-7.69,6.25-1.7,2.44-2.54,4.93-2.54,7.47,0,3.22,1.05,5.84,3.15,7.87,2.1,2.03,4.92,3.05,8.45,3.05,2.33,0,4.58-.46,6.73-1.38,2.15-.92,4.5-2.44,7.05-4.56l-15.16-18.71ZM264.27,86.65l4.03-3.07c2.97-2.3,4.45-4.58,4.45-6.84,0-1.91-.72-3.53-2.15-4.88-1.43-1.34-3.37-2.01-5.8-2.01s-4.22.59-5.56,1.78c-1.34,1.18-2.01,2.55-2.01,4.11,0,1.84,1.13,4.06,3.39,6.68l3.66,4.24Z"/>
</svg>